<?xml version="1.0" encoding="utf-8"?>
<svg version="1.1" id="svg869" width="980" height="441" viewBox="0 0 980 441" xmlns="http://www.w3.org/2000/svg">
  <g id="g897" transform="translate(16.533742,12.024536)">
    <g id="g5273" transform="translate(38.130333,-41.091284)" style="fill:#482f1e;fill-opacity:1;stroke:#482f1e;stroke-width:0;stroke-linecap:butt;stroke-linejoin:miter;stroke-miterlimit:4;stroke-dasharray:none;stroke-opacity:1;paint-order:stroke fill markers"/>
    <g id="g5255" transform="translate(6.7638037,-29.309819)"/>
    <path id="rect5315" style="fill:#482f1e;fill-opacity:1;stroke:#482f1e;stroke-width:0;stroke-linecap:butt;stroke-linejoin:miter;stroke-miterlimit:4;stroke-dasharray:none;stroke-dashoffset:0;stroke-opacity:1;paint-order:stroke fill markers" d="M 903.641 370.032 C 902.541 369.749 892.344 361.348 888.855 360.221 C 884.574 358.838 721.803 360.769 471.117 360.672 L 313.809 360.327 L 121.61 354.03 L 92.97 373.206 C 92.97 373.206 14.564 385.61 13.527 382.978 C 13.347 382.521 9.478 375.747 7.383 362.441 C 6.507 356.873 5.94 350.162 6.085 342.292 C 6.163 338.07 19.515 330.856 19.286 326.122 C 19.07 321.677 3.042 314.882 3.071 310.099 C 3.113 303.268 17.027 296.117 16.862 288.721 C 16.737 283.089 4.271 278.501 4.305 272.587 C 4.337 267.043 19.867 261.388 19.791 255.646 C 19.739 251.732 3.76 243.364 3.758 239.406 C 3.754 233.231 21.347 230.088 21.217 223.818 C 21.101 218.272 4.879 210.995 4.808 205.438 C 4.75 200.827 18.635 191.784 18.529 187.22 C 18.361 179.948 2.254 177.542 2.171 170.418 C 2.086 163.103 16.058 159.354 15.903 152.267 C 15.796 147.356 1.447 140.602 1.374 135.854 C 1.29 130.409 16.409 124.786 16.284 119.61 C 16.156 114.328 0.503 107.672 0.416 102.737 C 0.346 98.773 12.862 92.25 12.779 88.554 C 12.68 84.115 1.141 78.393 1.073 74.398 C 0.954 67.451 10.846 60.923 10.708 55.558 C 10.359 42.011 0.671 34.64 0.893 34.456 C 2.696 32.96 53.886 32.416 85.687 36.277 C 98.874 37.878 106.845 50.214 109.041 50.898 C 114.19 52.503 92.887 42.951 470.652 43.251 C 757.925 43.479 879.777 47.732 882.625 46.962 C 884.825 46.367 884.801 39.806 888.039 37.851 L 893.927 34.295 L 921.383 34.416 C 937.055 34.485 947.615 29.897 948.153 30.435 C 948.169 30.451 942.75 38.911 942.964 46.305 C 943.093 50.743 949.735 52.89 948.236 57.942 C 946.572 63.55 935.132 63.395 934.784 71.134 C 934.597 75.291 949.536 82.006 949.111 86.619 C 948.838 89.588 933.124 94.14 932.993 97.253 C 932.79 102.092 949.031 108.361 948.669 113.446 C 948.332 118.178 933.059 121.737 932.917 126.645 C 932.729 133.175 949.269 135.6 948.924 142.471 C 948.712 146.681 933.599 151.053 933.468 155.358 C 933.31 160.551 947.739 168.623 947.531 173.878 C 947.395 177.311 932.273 181.435 932.183 184.875 C 932.017 191.21 948.561 197.544 948.327 203.835 C 948.057 211.087 935.061 213.801 934.901 220.949 C 934.765 227.023 950.989 233.937 950.784 239.848 C 950.538 246.922 934.5 245.912 934.342 252.736 C 934.202 258.8 949.275 264.446 949.087 270.231 C 948.914 275.543 932.978 281.063 932.86 286.075 C 932.747 290.866 948.379 299.154 948.241 303.598 C 948.029 310.403 934.257 311.642 934.133 317.526 C 933.929 327.219 947.689 331.915 947.391 338.525 C 946.907 349.236 933.811 351.54 933.811 351.54 C 933.811 351.54 945.718 366.413 945.058 367.612 C 944.428 368.756 932.113 369.964 922.872 370.208 C 915.803 370.395 904.741 370.316 903.641 370.032 Z"/>
  </g>
</svg>