<?xml version="1.0" encoding="UTF-8" standalone="no"?>
<!-- Created with Inkscape (http://www.inkscape.org/) -->

<svg
   xmlns:dc="http://purl.org/dc/elements/1.1/"
   xmlns:cc="http://creativecommons.org/ns#"
   xmlns:rdf="http://www.w3.org/1999/02/22-rdf-syntax-ns#"
   xmlns:svg="http://www.w3.org/2000/svg"
   xmlns="http://www.w3.org/2000/svg"
   xmlns:sodipodi="http://sodipodi.sourceforge.net/DTD/sodipodi-0.dtd"
   xmlns:inkscape="http://www.inkscape.org/namespaces/inkscape"
   version="1.1"
   id="svg869"
   width="980"
   height="441"
   viewBox="0 0 980 441"
   sodipodi:docname="hersheys.svg"
   inkscape:version="0.92.5 (2060ec1f9f, 2020-04-08)">
  <metadata
     id="metadata875">
    <rdf:RDF>
      <cc:Work
         rdf:about="">
        <dc:format>image/svg+xml</dc:format>
        <dc:type
           rdf:resource="http://purl.org/dc/dcmitype/StillImage" />
        <dc:title></dc:title>
      </cc:Work>
    </rdf:RDF>
  </metadata>
  <defs
     id="defs873" />
  <sodipodi:namedview
     pagecolor="#ffffff"
     bordercolor="#666666"
     borderopacity="1"
     objecttolerance="10"
     gridtolerance="10"
     guidetolerance="10"
     inkscape:pageopacity="0"
     inkscape:pageshadow="2"
     inkscape:window-width="1848"
     inkscape:window-height="1016"
     id="namedview871"
     showgrid="false"
     inkscape:zoom="1"
     inkscape:cx="490"
     inkscape:cy="216.60542"
     inkscape:window-x="72"
     inkscape:window-y="27"
     inkscape:window-maximized="1"
     inkscape:current-layer="g897" />
  <g
     id="g897"
     transform="translate(16.533742,12.024536)">
    <g
       id="g5273"
       transform="translate(38.130333,-41.091284)"
       style="fill:#482f1e;fill-opacity:1;stroke:#482f1e;stroke-width:0;stroke-linecap:butt;stroke-linejoin:miter;stroke-miterlimit:4;stroke-dasharray:none;stroke-opacity:1;paint-order:stroke fill markers" />
    <g
       id="g5255"
       transform="translate(6.7638037,-29.309819)" />
    <path
       id="rect5315"
       style="fill:#482f1e;fill-opacity:1;stroke:#482f1e;stroke-width:0;stroke-linecap:butt;stroke-linejoin:miter;stroke-miterlimit:4;stroke-dasharray:none;stroke-dashoffset:0;stroke-opacity:1;paint-order:stroke fill markers"
       d="M 65.466255,54.975464 H 835.46626 V 246.97546 H 65.466255 Z M 916.15179,369.13744 c -1.1,-0.2835 -4.85477,-1.43759 -8.34393,-2.56463 -4.28083,-1.38276 -7.59246,-1.84952 -10.18311,-1.43526 -3.5953,0.57492 -13.62075,-1.16332 -19.41464,-3.36616 -1.5371,-0.5844 -156.40667,-1.00267 -407.09308,-1.09947 l -404.612155,-0.15623 -4.676538,3.36677 -4.676538,3.36676 h -12.5 c -6.875,0 -19.166985,-0.38576 -27.315522,-0.85724 -14.757399,-0.85387 -14.819603,-0.8676 -15.856112,-3.5 -1.120482,-2.84566 -0.729783,-36.51941 1.149763,-99.0962 1.044335,-34.76964 0.517325,-57.20916 -1.985645,-84.54656 -0.503571,-5.5 -1.217733,-38.80773 -1.587025,-74.01718 -0.610219,-58.180046 -0.524432,-64.139201 0.940851,-65.355278 2.550822,-2.116994 54.162555,-0.995608 61.65369,1.339571 5.149206,1.60514 31.23556,1.734913 408.999991,2.034683 287.27336,0.227962 404.65218,0.0084 407.5,-0.762178 2.2,-0.595304 6.64938,-2.682406 9.8875,-4.638005 l 5.8875,-3.555635 27.45631,0.120817 c 15.67222,0.06896 27.86074,0.525243 28.3986,1.063107 0.58972,0.589719 0.56172,6.89669 -0.0748,16.856189 -0.55942,8.752645 -1.46406,26.263895 -2.01032,38.913895 -3.17384,73.498454 -3.3312,85.373764 -2.38517,180.000014 0.73694,73.7117 0.68026,95.30528 -0.25293,96.36231 -0.86479,0.97955 -4.81356,1.4577 -14.05468,1.70184 -7.06862,0.18674 -13.75201,0.10758 -14.85201,-0.17593 z M 573.34112,122.99922 c -0.25153,-0.9625 -0.45733,-0.175 -0.45733,1.75 0,1.925 0.2058,2.7125 0.45733,1.75 0.25152,-0.9625 0.25152,-2.5375 0,-3.5 z m 0.35049,-26.635494 c 0.063,-11.43643 -0.14521,-21.05324 -0.46265,-21.37068 -0.31744,-0.31744 -0.57717,9.24783 -0.57717,21.25616 0,12.008344 0.20819,21.625154 0.46265,21.370694 0.25446,-0.25445 0.51418,-9.81973 0.57717,-21.256174 z m -356.6106,-22.00097 c 0.67344,-1.42826 0.54717,-1.7726 -0.51987,-1.41771 -1.13263,0.3767 -1.42195,3.69231 -1.47353,16.88645 l -0.0642,16.417724 0.58404,-15.000014 c 0.32123,-8.25 0.98432,-15.8489 1.47353,-16.88645 z m 308.72264,2.70348 c 0.8277,-0.99733 0.69919,-1.31703 -0.52942,-1.31703 -1.43525,0 -1.59713,1.75947 -1.40309,15.25 l 0.21934,15.250014 0.31007,-13.932984 c 0.18115,-8.14033 0.76449,-14.48053 1.4031,-15.25 z m -358.02603,-2.96864 c 0.56068,-0.67558 1.99923,-1.43744 3.19679,-1.69303 1.19756,-0.25559 0.60238,-0.3951 -1.32262,-0.31003 l -3.5,0.15467 -0.0806,8 c -0.0686,6.8145 -0.0237,7.04247 0.30322,1.53835 0.21108,-3.55391 0.84252,-7.01439 1.40319,-7.68996 z m -50.19611,-2.6574 c 0.0387,-0.44496 -0.37971,-0.5309 -0.92971,-0.19099 -0.55,0.33992 -0.96837,1.60398 -0.92971,2.80902 0.0678,2.11237 0.10112,2.11922 0.92971,0.19098 0.47269,-1.1 0.89106,-2.36405 0.92971,-2.80901 z m 27.82028,0.61969 c -0.9625,-0.25153 -2.5375,-0.25153 -3.5,0 -0.9625,0.25153 -0.175,0.45732 1.75,0.45732 1.925,0 2.7125,-0.20579 1.75,-0.45732 z" />
  </g>
</svg>
