<?xml version="1.0" encoding="UTF-8" standalone="no"?>
<!-- Created with Inkscape (http://www.inkscape.org/) -->

<svg
   xmlns:dc="http://purl.org/dc/elements/1.1/"
   xmlns:cc="http://creativecommons.org/ns#"
   xmlns:rdf="http://www.w3.org/1999/02/22-rdf-syntax-ns#"
   xmlns:svg="http://www.w3.org/2000/svg"
   xmlns="http://www.w3.org/2000/svg"
   xmlns:sodipodi="http://sodipodi.sourceforge.net/DTD/sodipodi-0.dtd"
   xmlns:inkscape="http://www.inkscape.org/namespaces/inkscape"
   version="1.1"
   id="svg869"
   width="980"
   height="441"
   viewBox="0 0 980 441"
   sodipodi:docname="reeses.svg"
   inkscape:version="0.92.5 (2060ec1f9f, 2020-04-08)">
  <metadata
     id="metadata875">
    <rdf:RDF>
      <cc:Work
         rdf:about="">
        <dc:format>image/svg+xml</dc:format>
        <dc:type
           rdf:resource="http://purl.org/dc/dcmitype/StillImage" />
        <dc:title></dc:title>
      </cc:Work>
    </rdf:RDF>
  </metadata>
  <defs
     id="defs873" />
  <sodipodi:namedview
     pagecolor="#ffffff"
     bordercolor="#666666"
     borderopacity="1"
     objecttolerance="10"
     gridtolerance="10"
     guidetolerance="10"
     inkscape:pageopacity="0"
     inkscape:pageshadow="2"
     inkscape:window-width="1848"
     inkscape:window-height="1016"
     id="namedview871"
     showgrid="false"
     inkscape:zoom="1.3306122"
     inkscape:cx="490"
     inkscape:cy="220.5"
     inkscape:window-x="72"
     inkscape:window-y="27"
     inkscape:window-maximized="1"
     inkscape:current-layer="g897" />
  <g
     id="g897"
     transform="translate(16.533742,12.024536)">
    <path
       style="fill:#ff4b18;fill-opacity:1"
       d="m 865.45705,374.35598 c -4.95,-0.46536 -16.425,-2.0257 -25.5,-3.46743 -9.78306,-1.55422 -18.53544,-2.41985 -21.5,-2.1264 -3.66625,0.36291 -6.96141,-0.15905 -12.35301,-1.95673 -4.04416,-1.34841 -9.51902,-2.70819 -12.16635,-3.02173 -4.53625,-0.53725 -5.03401,-0.3554 -8.64698,3.15905 -2.10851,2.05102 -5.18366,4.47174 -6.83366,5.37939 -2.76791,1.52259 -28.02067,1.67007 -326.42196,1.90633 l -323.42195,0.25608 -7.84222,-7.63162 c -7.47194,-7.27129 -8.01859,-7.60631 -11.57804,-7.09564 -2.05471,0.29479 -18.923147,2.24279 -37.485427,4.32888 l -33.749608,3.7929 -4.000395,-3.90628 c -2.200217,-2.14846 -4.000395,-4.35849 -4.000395,-4.91118 0,-0.55268 1.618281,-2.66215 3.59618,-4.68771 l 3.59618,-3.68282 -3.59618,-3.98054 c -1.977899,-2.1893 -3.59618,-4.40431 -3.59618,-4.92225 0,-0.51794 1.35,-2.23509 3,-3.81589 3.73657,-3.57986 3.73657,-4.42014 0,-8 -1.65,-1.5808 -3,-3.6058 -3,-4.5 0,-0.8942 1.35,-2.9192 3,-4.5 3.665887,-3.51214 3.718022,-4.47976 0.408178,-7.57569 -4.687583,-4.38462 -4.803069,-5.51647 -0.923111,-9.04715 1.933213,-1.75918 3.514933,-3.71294 3.514933,-4.34167 0,-0.62874 -1.575,-2.66971 -3.5,-4.53549 -1.925,-1.86578 -3.5,-3.84759 -3.5,-4.404 0,-0.55642 1.666326,-2.71815 3.702948,-4.80384 l 3.702948,-3.79216 -3.702948,-3.79216 c -2.036622,-2.08569 -3.702948,-4.20422 -3.702948,-4.70784 0,-0.50362 1.666326,-2.62215 3.702948,-4.70784 l 3.702948,-3.79216 -3.702948,-3.79216 c -4.486268,-4.59436 -4.608078,-6.16253 -0.702948,-9.04972 3.790218,-2.80223 3.790218,-5.02686 0,-8.65812 -1.65,-1.5808 -3,-3.6058 -3,-4.5 0,-0.8942 1.35,-2.9192 3,-4.5 1.65,-1.5808 3,-3.29795 3,-3.81589 0,-0.51794 -1.618281,-2.73295 -3.59618,-4.92225 l -3.59618,-3.98054 3.59618,-3.68282 c 1.977899,-2.02556 3.59618,-4.09488 3.59618,-4.5985 0,-0.50362 -1.636346,-2.59145 -3.636324,-4.63961 l -3.636325,-3.72393 3.636325,-4.24823 c 1.999978,-2.33652 3.636324,-4.52895 3.636324,-4.87206 0,-0.34311 -1.575,-2.15039 -3.5,-4.01617 -1.925,-1.86578 -3.5,-3.67231 -3.5,-4.01451 0,-0.3422 1.574648,-2.39143 3.499218,-4.55384 1.92457,-2.16241 3.49957,-4.18087 3.5,-4.48548 4.3e-4,-0.30461 -1.574218,-2.08039 -3.499218,-3.94617 -1.925,-1.86578 -3.5,-3.89487 -3.5,-4.50908 0,-0.6142 1.35,-2.41012 3,-3.99092 3.740055,-3.5832 3.740055,-4.58753 0,-8.84722 -1.65,-1.87924 -3,-3.83571 -3,-4.3477 0,-0.512 1.35,-2.22428 3,-3.80508 3.771094,-3.61294 3.771094,-5.38706 0,-9 -3.789744,-3.63081 -3.789744,-5.80146 0,-8.5 1.65,-1.1749 3,-2.69955 3,-3.3881 0,-0.68854 -1.636346,-3.16361 -3.636324,-5.50013 l -3.636325,-4.24823 3.636325,-3.72393 c 1.999978,-2.04816 3.636324,-4.04117 3.636324,-4.42889 0,-0.38773 -1.627363,-2.50625 -3.616362,-4.70784 l -3.616363,-4.00288 3.637489,-4.026267 c 3.99523,-4.42224 3.908187,-5.48204 -0.812942,-9.89804 -1.425502,-1.33338 -2.591822,-2.79458 -2.591822,-3.247123 0,-0.452543 1.600596,-2.594474 3.55688,-4.759846 l 3.55688,-3.937041 -3.55688,-3.937041 c -1.956284,-2.165372 -3.55688,-4.313527 -3.55688,-4.773677 0,-0.46015 1.618281,-2.493907 3.59618,-4.519459 l 3.59618,-3.682822 -3.59618,-3.980541 c -1.977899,-2.189298 -3.59618,-4.358968 -3.59618,-4.821489 0,-0.462521 1.893694,-2.770481 4.208208,-5.128799 5.169426,-5.267265 2.13326,-5.183743 47.17712,-1.297745 l 34.659297,2.990108 4.02757,-2.917558 c 2.21517,-1.604656 7.33945,-4.2963 11.3873,-5.98142 l 7.35972,-3.06386 118.34039,-1.49383 c 271.70628,-3.42979 430.8837,-5.31768 481.84039,-5.71479 l 33.5,-0.26106 6.5,3.29852 c 3.575,1.81418 7.19144,3.92376 8.03654,4.68795 0.84509,0.76419 3.77009,2.37857 6.5,3.58751 9.04378,4.005039 31.68391,2.643752 68.77511,-4.13525 11.99641,-2.19254 23.78419,-3.98643 26.19506,-3.98643 4.11124,0 4.66571,0.34655 8.92997,5.58139 4.84402,5.946542 4.90705,6.987593 0.65594,10.834789 -2.86392,2.591815 -2.62761,4.697087 0.90738,8.083824 1.65,1.5808 3,3.522951 3,4.31589 0,0.79294 -1.60287,3.215892 -3.56193,5.38434 l -3.56193,3.942631 3.56193,4.346866 c 1.95906,2.390777 3.56193,4.974442 3.56193,5.741479 0,0.767036 -1.35,2.687994 -3,4.268794 -1.65,1.5808 -3,3.6058 -3,4.5 0,0.8942 1.35,2.9192 3,4.5 1.65,1.5808 3,3.6058 3,4.5 0,0.8942 -1.35,2.919197 -3,4.499997 -1.65,1.5808 -3,3.6058 -3,4.5 0,0.8942 1.35,2.9192 3,4.5 1.65,1.5808 3,3.6058 3,4.5 0,0.8942 -1.35,2.9192 -3,4.5 -1.65,1.5808 -3,3.51273 -3,4.29319 0,0.78045 1.35,3.12352 3,5.20681 3.64391,4.60081 3.75096,6.27793 0.53518,8.38499 -4.62585,3.03098 -4.82607,4.91518 -0.99756,9.38793 1.90431,2.22476 3.46238,4.67678 3.46238,5.44895 0,0.77217 -1.35,2.69733 -3,4.27813 -1.65,1.5808 -3,3.6058 -3,4.5 0,0.8942 1.35,2.9192 3,4.5 1.65,1.5808 3,3.6058 3,4.5 0,0.8942 -1.35,2.9192 -3,4.5 -1.65,1.5808 -3,3.6058 -3,4.5 0,0.8942 1.35,2.9192 3,4.5 1.65,1.5808 3,3.6058 3,4.5 0,0.8942 -1.35,2.9192 -3,4.5 -1.65,1.5808 -3,3.44933 -3,4.15229 0,0.70297 1.35,2.81568 3,4.69493 1.65,1.87924 3,4.06071 3,4.8477 0,0.787 -1.35,2.72428 -3,4.30508 -1.65,1.5808 -3,3.6058 -3,4.5 0,0.8942 1.35,2.9192 3,4.5 1.65,1.5808 3,3.6058 3,4.5 0,0.8942 -1.35,2.9192 -3,4.5 -1.65,1.5808 -3,3.44933 -3,4.15229 0,0.70297 1.35,2.81568 3,4.69493 1.65,1.87924 3,4.06071 3,4.8477 0,0.787 -1.35,2.72428 -3,4.30508 -1.65,1.5808 -3,3.36949 -3,3.97487 0,0.60537 1.33171,2.65868 2.95936,4.5629 3.75007,4.3873 3.75658,5.90214 0.0406,9.46223 -1.65,1.5808 -3,3.29308 -3,3.80508 0,0.51199 1.35,2.46846 3,4.3477 1.65,1.87925 3,4.10521 3,4.94658 0,0.84137 -1.35,2.66571 -3,4.05409 -3.72725,3.13628 -3.71951,4.90969 0.0406,9.30878 1.62765,1.90422 2.95936,3.95753 2.95936,4.5629 0,0.60538 -1.35,2.39407 -3,3.97487 -1.65,1.5808 -3,3.6058 -3,4.5 0,0.8942 1.35,2.9192 3,4.5 1.65,1.5808 3,3.6058 3,4.5 0,0.8942 -1.35,2.9192 -3,4.5 -1.65,1.5808 -3,3.28773 -3,3.79319 0,0.50545 1.35,2.62352 3,4.70681 1.65,2.08329 3,4.42636 3,5.20681 0,0.78046 -1.35,2.71239 -3,4.29319 -1.65,1.5808 -3,3.3808 -3,4 0,0.6192 1.35,2.4192 3,4 1.65,1.5808 3,3.6058 3,4.5 0,0.8942 -1.35,2.9192 -3,4.5 -1.65,1.5808 -3,3.36949 -3,3.97487 0,0.60537 1.33171,2.65868 2.95936,4.5629 1.62765,1.90423 2.97591,4.13723 2.99615,4.96223 0.0202,0.825 -2.04854,3.1875 -4.59728,5.25 -4.49901,3.64072 -4.85589,3.74606 -12.24614,3.61485 -4.18665,-0.0743 -11.66209,-0.5159 -16.61209,-0.98126 z"
       id="path911"
       inkscape:connector-curvature="0" />
  </g>
</svg>
