<?xml version="1.0" encoding="UTF-8" standalone="no"?>
<!-- Created with Inkscape (http://www.inkscape.org/) -->

<svg
   xmlns:dc="http://purl.org/dc/elements/1.1/"
   xmlns:cc="http://creativecommons.org/ns#"
   xmlns:rdf="http://www.w3.org/1999/02/22-rdf-syntax-ns#"
   xmlns:svg="http://www.w3.org/2000/svg"
   xmlns="http://www.w3.org/2000/svg"
   xmlns:sodipodi="http://sodipodi.sourceforge.net/DTD/sodipodi-0.dtd"
   xmlns:inkscape="http://www.inkscape.org/namespaces/inkscape"
   version="1.1"
   id="svg869"
   width="980"
   height="441"
   viewBox="0 0 980 441"
   sodipodi:docname="skittles.svg"
   inkscape:version="0.92.5 (2060ec1f9f, 2020-04-08)">
  <metadata
     id="metadata875">
    <rdf:RDF>
      <cc:Work
         rdf:about="">
        <dc:format>image/svg+xml</dc:format>
        <dc:type
           rdf:resource="http://purl.org/dc/dcmitype/StillImage" />
        <dc:title></dc:title>
      </cc:Work>
    </rdf:RDF>
  </metadata>
  <defs
     id="defs873" />
  <sodipodi:namedview
     pagecolor="#ffffff"
     bordercolor="#666666"
     borderopacity="1"
     objecttolerance="10"
     gridtolerance="10"
     guidetolerance="10"
     inkscape:pageopacity="0"
     inkscape:pageshadow="2"
     inkscape:window-width="1848"
     inkscape:window-height="1016"
     id="namedview871"
     showgrid="false"
     inkscape:zoom="1"
     inkscape:cx="494"
     inkscape:cy="216.60542"
     inkscape:window-x="72"
     inkscape:window-y="27"
     inkscape:window-maximized="1"
     inkscape:current-layer="g5960" />
  <g
     id="g5960"
     transform="translate(78.56,285.63849)">
    <path
       id="path6000"
       style="fill:#d89da4;fill-opacity:1;stroke:none;stroke-width:0;stroke-linecap:butt;stroke-linejoin:miter;stroke-miterlimit:4;stroke-dasharray:none;stroke-dashoffset:0;stroke-opacity:1;paint-order:stroke fill markers"
       d="M -12.315588,-70.910598 V -235.7356 H 401.68441 815.68442 v 164.825002 164.825 H 401.68441 -12.315588 Z M -35.561842,119.58886 c -6.044726,-4.39374 -6.821246,-8.77589 -2.042808,-11.52816 4.378735,-2.52206 4.11795,-5.38272 -0.817122,-8.96296 -5.17347,-3.75319 -5.127435,-5.345462 0.305752,-10.575766 l 4.39137,-4.227398 -4.39137,-4.227399 c -5.253333,-5.057181 -5.414895,-6.50905 -1.122873,-10.091423 4.284911,-3.576435 4.123091,-5.516665 -0.817122,-9.797088 -5.139033,-4.452687 -5.139033,-6.553198 0,-10.281426 5.132205,-3.723271 5.132205,-5.319111 0,-8.420523 -5.385318,-3.254382 -5.156718,-6.100602 0.817122,-10.17402 5.754083,-3.923568 6.082728,-5.845803 1.634243,-9.558763 -4.517865,-3.770884 -4.09715,-6.160711 1.634253,-9.283224 5.34438,-2.911665 6.294454,-6.615718 2.451364,-9.5573308 -3.803772,-2.9115135 -2.906809,-6.496235 2.451375,-9.7970851 5.749493,-3.5419191 6.074021,-5.3377711 1.634253,-9.0434671 -4.284922,-3.576435 -4.12309,-5.516664 0.817122,-9.797088 5.147741,-4.46024 5.110256,-5.355825 -0.408567,-9.760281 l -4.494183,-3.586716 5.288478,-5.057676 5.28849,-5.057677 -5.220607,-4.814894 -5.220596,-4.814895 4.426301,-4.261006 c 5.437327,-5.234301 5.461762,-5.925521 0.340684,-9.640714 -5.190795,-3.765772 -5.130642,-5.339428 0.408555,-10.687358 l 4.494183,-4.338983 -4.494183,-3.028609 c -5.582295,-3.761886 -5.697225,-7.238326 -0.391287,-11.83562 l 4.102898,-3.55493 -4.102898,-3.94968 c -5.295903,-5.09817 -5.172435,-6.45487 1.0251,-11.26449 l 5.127987,-3.97959 -4.310865,-4.14991 c -5.362009,-5.16178 -5.403307,-7.02339 -0.225247,-10.15252 5.27086,-3.18521 5.16267,-5.93073 -0.408555,-10.36824 l -4.494185,-3.57963 4.90274,-4.77344 4.902738,-4.77343 -5.311293,-4.11916 c -6.268613,-4.8616 -6.438173,-5.93999 -1.790663,-11.38916 l 3.520643,-4.12793 -5.154897,-3.7208 c -5.960418,-4.30221 -6.525315,-7.92023 -1.846383,-11.82553 3.304147,-2.75785 3.30201,-2.76763 -1.634255,-7.46477 -6.000952,-5.71024 -6.082042,-6.81531 -0.83385,-11.36256 l 4.108905,-3.56013 -4.926037,-4.68739 c -5.987453,-5.69744 -6.112373,-7.24839 -0.840386,-10.43426 4.749603,-2.87022 5.097668,-4.89882 1.474155,-8.59161 -1.43631,-1.46376 -2.193322,-3.28539 -1.682247,-4.04806 0.511077,-0.76268 8.856495,-1.78148 18.545368,-2.26403 9.688882,-0.48256 41.149315,-2.10563 69.912067,-3.60685 61.878955,-3.22966 93.871525,-2.96607 128.288385,1.05696 43.93,5.13501 83.83771,6.42793 118.91967,3.85267 53.54951,-3.9309 173.78325,-6.0118 234.89482,-4.06536 66.11303,2.10572 120.69829,2.15853 162.08019,0.15673 17.23725,-0.83383 58.60413,-1.76648 91.9264,-2.07255 62.34355,-0.57267 65.24389,-0.31701 58.1346,5.12467 -3.34674,2.56169 -3.07586,4.94417 0.81711,7.18643 4.46204,2.57002 4.10139,6.16565 -1.12287,11.19483 l -4.39137,4.22741 4.39137,4.22739 c 5.41934,5.21696 5.42911,5.91301 0.15427,10.99093 l -4.23715,4.07894 5.05428,3.44638 c 5.92615,4.0409 6.1931,5.65946 1.78579,10.82701 -4.22479,4.95356 -4.11917,6.19566 0.73044,8.5894 6.06317,2.99273 6.453,6.03814 1.39603,10.90628 l -4.51218,4.34368 5.27848,3.80998 c 6.43385,4.64394 6.52543,5.99076 0.78428,11.53367 l -4.49418,4.33897 4.49418,3.02862 c 5.55465,3.74326 5.63551,5.78456 0.40856,10.31341 -4.94021,4.28042 -5.10203,6.22065 -0.81712,9.79708 4.29202,3.58238 4.13046,5.03424 -1.12287,10.09142 l -4.39144,4.22741 4.51152,4.34306 4.51154,4.34307 -4.98481,5.236177 -4.9848,5.236181 4.86464,3.997572 c 5.90617,4.853464 5.95778,5.516213 0.77903,10.00331 -2.24708,1.946987 -4.08562,4.171935 -4.08562,4.944351 0,0.772436 1.83854,2.738195 4.08562,4.368404 5.15986,3.743333 5.15986,6.268803 0,10.012136 -5.14324,3.731296 -5.14324,5.589638 0,8.697734 5.27199,3.185882 5.14707,4.736833 -0.8404,10.434268 l -4.92602,4.687395 4.10892,3.560125 c 5.38223,4.663411 5.18518,6.561032 -1.15678,11.138638 l -5.26564,3.800743 3.63139,3.565055 c 4.91179,4.8220367 4.56677,7.9661035 -1.22009,11.1188362 -5.76411,3.1403258 -7.4881,6.3468827 -4.06391,7.558753 1.35808,0.4806449 3.21503,2.1591568 4.12658,3.7300218 1.36382,2.350277 0.62151,3.73132 -4.19115,7.797684 l -5.84852,4.941547 4.14576,3.592064 c 5.19988,4.50541 5.21204,6.595972 0.0601,10.333532 -5.14835,3.734967 -5.12031,5.206956 0.1925,10.106887 l 4.27811,3.94565 -4.27811,4.118364 c -5.27938,5.082247 -5.29388,5.797178 -0.1925,9.498067 5.0241,3.644847 5.16786,6.763818 0.52192,11.32486 l -3.56372,3.498601 4.38083,4.21724 c 5.40804,5.206097 5.41718,5.904193 0.14366,10.980788 l -4.23716,4.078936 5.05428,3.44639 c 2.77986,1.89552 5.05427,4.20319 5.05427,5.12814 0,3.4839 -10.71606,11.10283 -17.15958,12.20013 -3.59534,0.61226 -33.0118,1.21197 -65.36988,1.33268 -32.3581,0.12073 -89.89045,0.79712 -127.84972,1.50316 -50.71216,0.94324 -81.39514,0.76285 -115.68875,-0.68016 -37.02487,-1.55794 -57.89021,-1.60214 -100.94489,-0.2139 -29.85011,0.96246 -76.70296,2.46253 -104.11746,3.33349 -51.74602,1.64396 -83.94986,0.73163 -140.05892,-3.96787 -14.56333,-1.21977 -37.36108,-2.30401 -50.66167,-2.40943 -23.26217,-0.18437 -90.775682,3.23453 -123.054834,6.23153 -25.61715,2.37845 -31.128672,2.02699 -37.179125,-2.37092 z M 16.285955,72.78253 c 4.466396,-2.054977 4.923765,-2.696506 2.729768,-3.828913 -1.886738,-0.973816 -2.212898,-2.092478 -1.14794,-3.93721 0.81818,-1.417276 1.922063,-3.850678 2.453052,-5.407555 0.810518,-2.376457 2.135958,-2.709001 8.259907,-2.072386 5.033273,0.523225 7.872581,0.115757 9.159446,-1.314241 1.552242,-1.724982 -0.05344,-2.072537 -9.57474,-2.072537 -8.174947,0 -12.020343,0.645222 -13.474193,2.260867 -1.118947,1.243476 -3.047523,2.260866 -4.28572,2.260866 -1.639305,0 -2.25126,2.253405 -2.25126,8.289844 0,4.559414 0.622417,8.289845 1.383153,8.289845 0.760747,0 3.797584,-1.11087 6.748527,-2.46858 z m 40.60377,-9.490094 c 0.379215,-3.569908 -0.07504,-4.762063 -1.634243,-4.289572 -1.187674,0.359885 -2.395744,2.879093 -2.684576,5.598253 -0.379216,3.569908 0.07504,4.762063 1.634242,4.289572 1.187674,-0.359885 2.395722,-2.879093 2.684577,-5.598253 z M 156.13228,14.836474 c 15.46714,-4.396346 22.70193,-8.007598 31.84551,-15.8956674 11.26732,-9.7202186 15.11386,-18.9214186 14.40036,-34.4468916 -0.47574,-10.352634 -1.27112,-13.290623 -5.00697,-18.495341 -9.26926,-12.913701 -23.07773,-18.243686 -54.82535,-21.162143 -16.28541,-1.497076 -21.62851,-4.001362 -21.62851,-10.137184 0,-12.319467 25.47822,-21.072167 35.21059,-12.096122 2.20622,2.034786 4.01134,4.747824 4.01134,6.028975 0,2.996329 6.57096,2.866236 22.86087,-0.452608 14.83929,-3.02329 15.41097,-4.265966 8.18771,-17.798202 -9.00256,-16.86569 -24.11638,-23.42422 -46.41049,-20.1395 -21.07499,3.10511 -34.10976,9.05222 -45.066693,20.56168 -15.79041,16.586667 -17.865329,42.148308 -4.623957,56.963995 5.9406,6.646912 11.1793,7.988455 38.19655,9.781532 28.97969,1.923323 33.39299,3.749783 33.39299,13.819909 0,10.246337 -12.59485,17.969277 -29.30491,17.969277 -9.38588,0 -12.87096,-2.08779 -16.49261,-9.880138 -1.83218,-3.942137 -3.95288,-6.404116 -5.20394,-6.041397 -1.16136,0.336718 -8.17871,2.416851 -15.5941,4.622538 l -13.482539,4.010325 v 5.60927 c 0,8.1387881 7.20756,20.478414 14.334129,24.540589 13.90171,7.924035 33.33353,8.852362 55.20002,2.637104 z m 75.28676,-15.4894835 c 6.3964,-1.1250641 12.50176,-2.5426124 13.5675,-3.1500775 1.33603,-0.7615495 1.83109,-6.1350421 1.59435,-17.305124 -0.52826,-24.923978 2.12063,-25.871822 14.91929,-5.338494 4.92291,7.898006 9.76509,15.470868 10.76041,16.8285938 1.67175,2.280476 3.07192,2.255833 18.37535,-0.3233942 9.11114,-1.5355796 17.36222,-3.2459866 18.3357,-3.8008776 1.94439,-1.108307 -4.33109,-11.142606 -24.04356,-38.445008 -6.61419,-9.160822 -12.02579,-17.873348 -12.02579,-19.361143 0,-2.472242 11.16979,-18.503777 22.10513,-31.726586 3.28638,-3.97381 3.79416,-5.35759 1.96596,-5.35759 -2.22062,0 -24.82582,3.58613 -33.10687,5.25212 -2.02363,0.40712 -6.4264,5.412527 -11.29698,12.843247 -12.70695,19.386204 -15.3575,15.715176 -15.5265,-21.504477 l -0.0941,-20.74242 -6.94554,1.02081 c -3.82005,0.56145 -10.6226,1.77993 -15.1168,2.70775 l -8.17123,1.68695 0.39499,30.092619 c 0.23866,18.183 1.69391,40.30071 3.67705,55.885888 1.80514,14.186293 3.28209,29.616707 3.28209,34.2898132 0,9.8103642 -0.56859,9.5990785 17.34962,6.4474003 z m 402.64705,0.2540461 c 0.0106,-2.0179406 -3.49424,-3.0000611 -7.4422,-2.0861886 -5.90747,1.3674471 -4.84285,3.3706475 1.72233,3.2407531 3.1433,-0.062253 5.71721,-0.5817515 5.71987,-1.1545645 z M 37.570718,-6.1400842 c 0,-1.6579685 -0.735413,-3.0144887 -1.634243,-3.0144887 -0.89884,0 -1.634253,1.3565202 -1.634253,3.0144887 0,1.6579685 0.735413,3.0144887 1.634253,3.0144887 0.89883,0 1.634243,-1.3565202 1.634243,-3.0144887 z M 335.47113,-17.300972 c 7.89721,-1.105791 14.80796,-2.424991 15.35722,-2.931576 0.54929,-0.506584 -0.68112,-13.312566 -2.7342,-28.457741 -2.05309,-15.145166 -4.18366,-36.35404 -4.73463,-47.13084 l -1.00174,-19.594171 -5.71986,0.46381 c -3.14592,0.2551 -10.13231,1.27249 -15.52533,2.26087 l -9.80549,1.79705 -0.48537,6.87183 c -0.26696,3.77951 1.38774,24.701189 3.67705,46.492622 2.28934,21.791442 4.16244,40.233873 4.16244,40.983185 0,1.665339 -0.70051,1.696795 16.80991,-0.755039 z m 82.56259,-7.824603 c 3.43476,-0.645855 3.68842,-1.305847 2.85993,-7.441295 -0.50003,-3.70292 -1.31608,-9.749081 -1.81349,-13.435898 l -0.90437,-6.703304 -7.67543,-0.456105 c -7.29467,-0.433485 -7.77608,-0.740458 -9.70438,-6.188024 -1.11591,-3.152547 -2.21904,-13.312027 -2.45138,-22.576599 l -0.42241,-16.844697 6.94555,-1.376633 6.94555,-1.37665 0.27239,-8.82932 c 0.14985,-4.85613 0.33365,-10.01626 0.40855,-11.46699 0.11048,-2.13991 -1.25164,-2.63768 -7.21792,-2.63768 h -7.35412 v -12.34659 c 0,-6.79063 -0.73541,-12.99128 -1.63423,-13.77923 -1.03522,-0.9075 -6.42653,-0.69284 -14.70824,0.5856 -7.19069,1.11001 -13.92008,2.05414 -14.95418,2.09806 -1.22792,0.0522 -2.07836,4.80522 -2.45136,13.70099 -0.6047,14.42032 -1.7326,16.45412 -9.15098,16.5007 -3.48149,0.0219 -3.67705,0.61943 -3.67705,11.23641 v 11.213354 l 6.05609,0.467789 6.05607,0.467809 2.85167,23.653442 c 1.97042,16.343667 3.84044,25.426636 6.05112,29.391262 8.44956,15.153369 23.20398,20.36851 45.67262,16.143599 z M 43.34667,-27.404499 c 2.56886,-7.464744 -3.420989,-27.514674 -6.154177,-20.60008 -1.198428,3.031801 -1.536985,20.631657 -0.428715,22.285526 1.727247,2.577554 5.44328,1.62612 6.582892,-1.685446 z m 576.28907,-5.678079 c 3.89457,-1.554618 9.04109,-4.521116 11.43671,-6.59223 9.32888,-8.065234 14.99175,-25.263094 8.30974,-25.23637 -12.39849,0.04959 -30.2863,3.227349 -34.5562,6.13889 -6.04769,4.12377 -14.24175,3.070495 -20.41647,-2.624356 -3.96004,-3.652294 -6.11823,-12.567521 -3.0431,-12.570704 16.23432,-0.01672 54.50974,-1.605063 57.32138,-2.3786 3.52813,-0.970663 3.72475,-1.596428 2.75051,-8.753044 -2.41435,-17.735698 -8.54743,-31.877168 -17.21416,-39.692018 -12.98816,-11.7115 -41.62705,-14.61216 -57.82573,-5.85683 -34.36321,18.57316 -27.94573,76.28587 10.49387,94.372303 13.59802,6.398072 31.38541,7.726814 42.74345,3.192959 z m -35.08437,-60.086569 c -10.24353,-0.590102 -12.0586,-2.132427 -10.26518,-8.722663 2.82555,-10.38297 15.48132,-13.21531 22.86887,-5.118 4.76448,5.22223 5.63285,12.630866 1.64587,14.041911 -1.42177,0.503196 -3.07646,0.786638 -3.67708,0.629897 -0.60059,-0.156759 -5.35821,-0.530765 -10.57248,-0.831145 z m -92.40651,53.116068 c -0.31001,-4.144926 -1.05441,-10.249265 -1.65424,-13.565202 -1.05527,-5.833732 -1.32767,-6.053381 -8.41186,-6.782601 -10.08941,-1.03855 -11.50507,-4.294798 -11.91958,-27.416744 l -0.33011,-18.414594 6.94554,-1.28894 c 5.07167,-0.94119 6.94555,-2.01866 6.94555,-3.99364 0,-1.48757 0.47247,-6.87374 1.04994,-11.96925 l 1.04993,-9.26456 h -6.67335 c -3.67034,0 -7.16498,-0.73364 -7.76583,-1.63029 -0.60087,-0.89668 -1.56353,-6.49233 -2.13927,-12.43477 l -1.04676,-10.80448 -9.80549,0.29325 c -5.39301,0.16129 -12.87869,0.70431 -16.63481,1.20672 l -6.82933,0.91346 -1.14477,13.49636 -1.14475,13.49634 -5.09988,1.21882 -5.0999,1.21882 v 11.20852 11.20851 l 5.40503,0.47875 c 2.97275,0.26332 5.69426,1.2807 6.04774,2.26086 0.35352,0.980185 1.76962,11.102217 3.14685,22.493439 2.76565,22.874718 5.08608,29.574004 12.85686,37.118448 7.86336,7.634342 13.08916,9.230627 28.92506,8.835551 l 13.89109,-0.34656 z m 236.23847,2.949987 c 10.20278,-4.689143 13.56255,-10.35139 13.51197,-22.771956 -0.0802,-19.710239 -11.98074,-30.346078 -45.12226,-40.327142 -11.02918,-3.32159 -14.85378,-7.10587 -12.33482,-12.20474 1.5072,-3.05089 3.02356,-3.75764 8.02197,-3.73892 7.11474,0.0267 9.0211,0.94414 11.69618,5.62909 1.78828,3.13191 3.057,3.39131 16.5871,3.39131 8.05791,0 14.65074,-0.59299 14.65074,-1.31775 0,-4.20096 -5.76869,-15.18882 -10.17598,-19.3826 -7.59139,-7.22367 -17.5374,-10.20325 -33.94869,-10.17021 -17.93041,0.036 -27.56663,3.95976 -34.50455,14.04954 -3.88398,5.64847 -4.71738,8.49978 -4.71738,16.13959 0,16.074247 8.91286,24.101215 36.77055,33.115708 15.85991,5.132119 20.4281,7.944328 20.4281,12.575635 0,3.798451 -5.17943,7.74363 -10.16621,7.74363 -6.50901,0 -10.58205,-2.277853 -13.55543,-7.580895 l -2.51025,-4.477056 h -15.38693 c -8.46283,0 -15.73844,0.524533 -16.16803,1.165622 -1.23366,1.840967 6.34661,15.243947 11.46552,20.272667 2.55641,2.511373 8.32508,6.169376 12.81926,8.128884 7.04587,3.072082 10.65909,3.56479 26.23564,3.577472 16.09227,0.01358 18.97479,-0.403683 26.4035,-3.817879 z m -191.84288,1.194929 c 0.39451,-0.621737 -0.76413,-10.965204 -2.57478,-22.985478 -2.54311,-16.882953 -3.35518,-31.113412 -3.56954,-62.550639 -0.15264,-22.38258 -0.86776,-41.88255 -1.58923,-43.33327 -1.11874,-2.24957 -3.66137,-2.63768 -17.28006,-2.63768 h -15.96829 l -0.13532,25.24634 c -0.0744,13.88549 0.58096,34.40285 1.45648,45.594145 1.50632,19.254743 5.99701,55.830693 7.35596,59.912966 0.69509,2.088072 31.00937,2.795252 32.30482,0.753616 z M 783.81568,-172.72652 c -0.66105,-1.58884 -2.52128,-2.26184 -5.38717,-1.94907 -6.4813,0.70737 -6.64903,3.94992 -0.23451,4.53322 6.59845,0.60004 6.89065,0.46573 5.62168,-2.58415 z m -74.56942,-10.51478 c 2.20833,-2.45411 1.68011,-2.76088 -2.31771,-1.34599 -1.42177,0.50319 -2.58503,1.52057 -2.58503,2.26087 0,2.08487 2.64804,1.59074 4.90274,-0.91488 z m -572.80358,-2.26087 c -0.55552,-0.82898 -2.02635,-1.50724 -3.2685,-1.50724 -1.24217,0 -2.71299,0.67826 -3.2685,1.50724 -0.57512,0.85823 0.8323,1.50725 3.2685,1.50725 2.43617,0 3.8436,-0.64902 3.2685,-1.50725 z"
       inkscape:connector-curvature="0" />
  </g>
</svg>
